<?xml version="1.0" standalone="no"?>
<!DOCTYPE svg PUBLIC "-//W3C//DTD SVG 20010904//EN"
 "http://www.w3.org/TR/2001/REC-SVG-20010904/DTD/svg10.dtd">
<svg version="1.0" xmlns="http://www.w3.org/2000/svg"
 width="300.000000pt" height="300.000000pt" viewBox="0 0 300.000000 300.000000"
 preserveAspectRatio="xMidYMid meet">
<metadata>
Created by potrace 1.14, written by Peter Selinger 2001-2017
</metadata>
<g transform="translate(0.000000,300.000000) scale(0.100000,-0.100000)"
fill="#000000" stroke="none">
<path d="M0 1722 c0 -1394 -3 -1330 57 -1452 34 -70 141 -176 215 -214 112
-57 82 -56 1229 -56 995 0 1060 1 1126 19 159 41 284 157 346 317 l22 59 2
1080 c3 1174 5 1137 -53 1251 -32 64 -118 159 -181 199 -23 15 -74 37 -115 50
l-73 24 -1287 1 -1288 0 0 -1278z"/>
</g>
</svg>
